<svg viewBox="0 0 506.07 52.47" xmlns="http://www.w3.org/2000/svg" xmlns:xlink="http://www.w3.org/1999/xlink" overflow="hidden"><defs/><g id="Layer_1"><rect x="0" y="0" width="506.07" height="52.47" fill="none"/></g><g id="Volvo_Construction_Equipment"><path d="M468.16 308.77 459.86 285.48 464.81 285.48 468.54 296.75C469.441 299.212 470.215 301.719 470.86 304.26L470.93 304.26C471.27 302.89 471.78 301.05 473.21 296.71L476.8 285.48 481.65 285.48 473.32 308.77Z" fill="#FFFFFF" transform="translate(-449.96 -271.69)"/><path d="M490.29 309.25C484.97 309.25 481.75 305.9 481.75 300.44 481.75 294.98 485.17 291.52 490.43 291.52 495.69 291.52 498.97 294.87 498.97 300.37 498.97 305.87 495.55 309.25 490.29 309.25ZM490.36 294.97C487.66 294.97 486.09 297.16 486.09 300.4 486.09 303.64 487.66 305.83 490.36 305.83 493.06 305.83 494.63 303.61 494.63 300.4 494.63 297.19 493.06 295 490.36 295Z" fill="#FFFFFF" transform="translate(-449.96 -271.69)"/><path d="M502.83 284.66 506.93 284.66 506.93 308.77 502.83 308.77Z" fill="#FFFFFF" transform="translate(-449.96 -271.69)"/><path d="M515.91 308.77 509.59 292 514.24 292 516.56 298.76C517.31 300.98 518.03 303.4 518.33 304.76L518.44 304.76C518.74 303.43 519.44 301.01 520.18 298.76L522.36 292 526.91 292 520.59 308.73Z" fill="#FFFFFF" transform="translate(-449.96 -271.69)"/><path d="M536.64 309.25C531.31 309.25 528.1 305.9 528.1 300.44 528.1 294.98 531.52 291.52 536.78 291.52 542.04 291.52 545.32 294.87 545.32 300.37 545.32 305.87 541.9 309.25 536.64 309.25ZM536.71 294.97C534.01 294.97 532.44 297.16 532.44 300.4 532.44 303.64 534.01 305.83 536.71 305.83 539.41 305.83 540.98 303.61 540.98 300.4 540.98 297.19 539.41 295 536.71 295Z" fill="#FFFFFF" transform="translate(-449.96 -271.69)"/><path d="M578.38 302C576.94 306.78 573.26 309.3 568.24 309.3 561.71 309.3 557.07 304.69 557.07 297.15 557.07 288.85 562.77 284.92 568.24 284.92 572.72 284.686 576.785 287.531 578.1 291.82L573.9 293.02C573.152 290.499 570.799 288.799 568.17 288.88 564.68 288.88 561.75 291.72 561.75 297.08 561.75 302.08 564.34 305.31 568.3 305.31 571.086 305.471 573.599 303.641 574.3 300.94Z" fill="#FFFFFF" transform="translate(-449.96 -271.69)"/><path d="M589.31 309.25C583.98 309.25 580.77 305.9 580.77 300.44 580.77 294.98 584.19 291.52 589.45 291.52 594.71 291.52 597.98 294.87 597.98 300.37 597.98 305.87 594.57 309.25 589.31 309.25ZM589.38 294.97C586.68 294.97 585.11 297.16 585.11 300.4 585.11 303.64 586.68 305.83 589.38 305.83 592.08 305.83 593.65 303.61 593.65 300.4 593.65 297.19 592.08 295 589.38 295Z" fill="#FFFFFF" transform="translate(-449.96 -271.69)"/><path d="M613.18 308.77 613.18 299.89C613.307 298.712 613.156 297.52 612.74 296.41 612.193 295.374 611.077 294.767 609.91 294.87 608.955 294.849 608.03 295.209 607.34 295.87 606.25 296.96 605.94 298.5 605.94 300.58L605.94 308.81 601.85 308.81 601.85 300.61C601.85 295.32 601.78 293.54 601.74 292.08L605.6 292.08 605.67 294.29 605.67 294.29C606.858 292.507 608.889 291.473 611.03 291.56 614.89 291.56 617.24 293.71 617.24 298.43L617.24 308.81Z" fill="#FFFFFF" transform="translate(-449.96 -271.69)"/><path d="M622.41 303.82C624.138 305.208 626.275 305.988 628.49 306.04 630.43 306.04 631.39 305.35 631.39 304.23 631.39 300.78 621.39 303.65 621.39 296.65 621.39 293.47 624.05 291.52 628.19 291.52 630.497 291.521 632.757 292.173 634.71 293.4L633.14 296.27C631.682 295.221 629.936 294.649 628.14 294.63 626.36 294.63 625.58 295.31 625.58 296.24 625.58 299.65 635.65 296.78 635.65 303.85 635.65 307.23 632.78 309.25 628.51 309.25 625.747 309.247 623.054 308.387 620.8 306.79Z" fill="#FFFFFF" transform="translate(-449.96 -271.69)"/><path d="M637.4 295.31 637.4 292 640.07 292 640.07 286.8 644.16 285.98 644.16 291.98 648.4 291.98 648.4 295.25 644.16 295.25 644.16 301.84C644.16 304.37 644.27 304.84 644.68 305.33 645.054 305.654 645.549 305.803 646.04 305.74 646.843 305.754 647.642 305.625 648.4 305.36L648.4 308.61C647.317 309.002 646.172 309.199 645.02 309.19 641.47 309.19 640.07 307.58 640.07 303.72L640.07 295.25Z" fill="#FFFFFF" transform="translate(-449.96 -271.69)"/><path d="M651.82 308.77 651.82 300.57C651.82 295.28 651.75 293.5 651.71 292.04L655.57 292.04 655.67 295.04 655.67 295.04C657.07 292.55 658.88 291.56 660.93 291.56 661.236 291.543 661.544 291.543 661.85 291.56L661.85 295.76C661.58 295.76 661.1 295.76 660.85 295.76 659.604 295.702 658.387 296.145 657.47 296.99 655.93 298.49 655.86 300.5 655.86 303.1L655.86 308.77Z" fill="#FFFFFF" transform="translate(-449.96 -271.69)"/><path d="M676 308.77 675.93 306.55 675.93 306.55C674.773 308.311 672.776 309.336 670.67 309.25 666.88 309.25 664.53 307.13 664.53 302.42L664.53 292 668.63 292 668.63 300.87C668.504 302.052 668.655 303.246 669.07 304.36 669.597 305.365 670.668 305.965 671.8 305.89 672.731 305.893 673.631 305.555 674.33 304.94 675.42 303.84 675.69 302.27 675.69 300.23L675.69 292 679.79 292 679.79 300.46C679.79 305.46 679.86 307.33 679.89 308.73Z" fill="#FFFFFF" transform="translate(-449.96 -271.69)"/><path d="M699.67 304.16C698.2 307.27 695.94 309.25 691.91 309.25 686.96 309.25 683.62 306.04 683.62 300.44 683.62 294.84 687.2 291.52 691.95 291.52 695.7 291.52 698.23 293.2 699.43 296.37L695.7 297.87C695.289 296.137 693.731 294.92 691.95 294.94 689.56 294.94 687.95 296.85 687.95 300.37 687.95 303.54 689.42 305.83 692.05 305.83 693.863 305.845 695.46 304.638 695.94 302.89Z" fill="#FFFFFF" transform="translate(-449.96 -271.69)"/><path d="M700.93 295.31 700.93 292 703.6 292 703.6 286.8 707.69 285.98 707.69 291.98 711.93 291.98 711.93 295.25 707.69 295.25 707.69 301.84C707.69 304.37 707.8 304.84 708.21 305.33 708.584 305.654 709.079 305.803 709.57 305.74 710.373 305.754 711.172 305.625 711.93 305.36L711.93 308.61C710.847 309.002 709.702 309.199 708.55 309.19 705 309.19 703.6 307.58 703.6 303.72L703.6 295.25Z" fill="#FFFFFF" transform="translate(-449.96 -271.69)"/><path d="M715.31 285.07 719.48 285.07 719.48 289.75 715.31 289.75ZM715.31 308.77 715.31 292 719.41 292 719.41 308.73Z" fill="#FFFFFF" transform="translate(-449.96 -271.69)"/><path d="M731.88 309.25C726.55 309.25 723.34 305.9 723.34 300.44 723.34 294.98 726.75 291.52 732.01 291.52 737.27 291.52 740.55 294.87 740.55 300.37 740.55 305.87 737.13 309.25 731.88 309.25ZM731.94 294.97C729.25 294.97 727.67 297.16 727.67 300.4 727.67 303.64 729.25 305.83 731.94 305.83 734.63 305.83 736.21 303.61 736.21 300.4 736.21 297.19 734.64 295 731.94 295Z" fill="#FFFFFF" transform="translate(-449.96 -271.69)"/><path d="M755.75 308.77 755.75 299.89C755.875 298.711 755.721 297.519 755.3 296.41 754.755 295.372 753.638 294.764 752.47 294.87 751.517 294.848 750.596 295.208 749.91 295.87 748.82 296.96 748.51 298.5 748.51 300.58L748.51 308.81 744.41 308.81 744.41 300.61C744.41 295.32 744.34 293.54 744.31 292.08L748.17 292.08 748.24 294.29 748.24 294.29C749.428 292.507 751.459 291.473 753.6 291.56 757.46 291.56 759.82 293.71 759.82 298.43L759.82 308.81Z" fill="#FFFFFF" transform="translate(-449.96 -271.69)"/><path d="M773.79 285.48 790.59 285.48 790.59 289 778.22 289 778.22 295.18 789 295.18 789 298.59 778.22 298.59 778.22 305.22 791.17 305.22 791.17 308.77 773.79 308.77Z" fill="#FFFFFF" transform="translate(-449.96 -271.69)"/><path d="M807 315.32 807 309.93C806.985 308.833 807.052 307.737 807.2 306.65L807.2 306.65C805.984 308.37 803.974 309.35 801.87 309.25 797.06 309.25 794.43 305.52 794.43 300.47 794.43 295.04 797.53 291.47 802.21 291.47 804.258 291.367 806.213 292.336 807.37 294.03L807.37 294.03 807.51 292.03 811.33 292.03C811.2 294.69 811.1 297.39 811.1 300.03L811.1 315.26ZM807.1 300.09C807.1 297.02 805.5 294.87 802.9 294.87 800.3 294.87 798.73 297.09 798.73 300.4 798.73 303.71 800.24 305.93 803 305.93 805.46 305.93 807.1 303.99 807.1 300.67Z" fill="#FFFFFF" transform="translate(-449.96 -271.69)"/><path d="M827.3 308.77 827.24 306.55 827.24 306.55C826.083 308.311 824.086 309.336 821.98 309.25 818.19 309.25 815.84 307.13 815.84 302.42L815.84 292 819.93 292 819.93 300.87C819.806 302.052 819.96 303.248 820.38 304.36 820.907 305.365 821.978 305.965 823.11 305.89 824.041 305.893 824.941 305.555 825.64 304.94 826.73 303.84 827 302.27 827 300.23L827 292 831.1 292 831.1 300.46C831.1 305.46 831.17 307.33 831.2 308.73Z" fill="#FFFFFF" transform="translate(-449.96 -271.69)"/><path d="M836 285.07 840.16 285.07 840.16 289.75 836 289.75ZM836 308.77 836 292 840.1 292 840.1 308.73Z" fill="#FFFFFF" transform="translate(-449.96 -271.69)"/><path d="M845.17 315.32 845.17 300.37C845.17 297.7 845.17 294.73 845.07 292.04L848.93 292.04 848.99 294.25 848.99 294.25C850.197 292.451 852.257 291.416 854.42 291.52 859.2 291.52 861.86 295.28 861.86 300.33 861.86 305.73 858.72 309.25 854.04 309.25 852.159 309.321 850.358 308.484 849.2 307L849.2 307C849.26 307.61 849.3 308.6 849.3 309.9L849.3 315.29ZM849.17 300.71C849.17 303.71 850.74 305.93 853.37 305.93 856 305.93 857.5 303.71 857.5 300.37 857.5 297.23 856.03 294.87 853.23 294.87 850.81 294.87 849.17 296.78 849.17 300.13Z" fill="#FFFFFF" transform="translate(-449.96 -271.69)"/><path d="M888.17 308.77 888.17 299.89C888.17 298.08 888.17 297.26 887.69 296.41 887.172 295.375 886.072 294.764 884.92 294.87 883.99 294.861 883.095 295.221 882.43 295.87 881.34 296.96 881.06 298.5 881.06 300.58L881.06 308.81 877 308.81 877 299.93C877.125 298.751 876.971 297.559 876.55 296.45 876.021 295.431 874.935 294.825 873.79 294.91 872.849 294.902 871.941 295.26 871.26 295.91 870.17 297 869.89 298.54 869.89 300.62L869.89 308.85 865.8 308.85 865.8 300.65C865.8 295.36 865.73 293.58 865.69 292.12L869.55 292.12 869.62 294.33 869.62 294.33C870.79 292.558 872.798 291.524 874.92 291.6 877.51 291.6 879.36 292.66 880.31 294.6 881.576 292.639 883.788 291.497 886.12 291.6 889.88 291.6 892.27 293.75 892.27 298.47L892.27 308.85Z" fill="#FFFFFF" transform="translate(-449.96 -271.69)"/><path d="M895.86 300.44C895.86 294.94 899.27 291.52 904.36 291.52 909.75 291.52 912.42 295.18 912.42 299.75 912.421 300.357 912.364 300.963 912.25 301.56L900.25 301.56C900.52 304.56 902.36 306.04 904.99 306.04 907.015 306.101 908.969 305.293 910.36 303.82L912.13 306.41C910.115 308.29 907.445 309.31 904.69 309.25 899.13 309.25 895.86 306 895.86 300.44ZM908.08 298.73C908.01 296.37 906.61 294.66 904.29 294.66 901.97 294.66 900.6 296.24 900.29 298.73Z" fill="#FFFFFF" transform="translate(-449.96 -271.69)"/><path d="M927.55 308.77 927.55 299.89C927.677 298.712 927.526 297.52 927.11 296.41 926.557 295.374 925.44 294.768 924.27 294.87 923.317 294.848 922.396 295.208 921.71 295.87 920.62 296.96 920.31 298.5 920.31 300.58L920.31 308.81 916.21 308.81 916.21 300.61C916.21 295.32 916.14 293.54 916.11 292.08L920 292.08 920.07 294.29 920.07 294.29C921.261 292.51 923.29 291.477 925.43 291.56 929.29 291.56 931.65 293.71 931.65 298.43L931.65 308.81Z" fill="#FFFFFF" transform="translate(-449.96 -271.69)"/><path d="M934.35 295.31 934.35 292 937 292 937 286.8 941.1 285.98 941.1 291.98 945.34 291.98 945.34 295.25 941.1 295.25 941.1 301.84C941.1 304.37 941.2 304.84 941.61 305.33 941.989 305.653 942.486 305.802 942.98 305.74 943.783 305.753 944.582 305.625 945.34 305.36L945.34 308.61C944.253 309.002 943.105 309.199 941.95 309.19 938.4 309.19 936.95 307.58 936.95 303.72L936.95 295.25Z" fill="#FFFFFF" transform="translate(-449.96 -271.69)"/></g></svg>