<svg xmlns="http://www.w3.org/2000/svg" width="1500" height="860" viewBox="0 0 1500 860">
  <defs>
    <style>
      .title { font: 700 30px 'Segoe UI', Arial, sans-serif; fill: #ffffff; }
      .cloudTitle { font: 700 28px 'Segoe UI', Arial, sans-serif; fill: #2b5c88; }
      .cloudSub { font: 16px 'Segoe UI', Arial, sans-serif; fill: #52789d; }
      .h { font: 700 22px 'Segoe UI', Arial, sans-serif; fill: #1f2937; }
      .p { font: 17px 'Segoe UI', Arial, sans-serif; fill: #374151; }
      .small { font: 16px 'Segoe UI', Arial, sans-serif; fill: #374151; }
      .lineBlue { stroke: #6c8ebf; stroke-width: 3; fill: none; }
      .lineGreen { stroke: #82b366; stroke-width: 3; fill: none; }
      .lineRed { stroke: #d26a5c; stroke-width: 3; fill: none; }
      .linePurple { stroke: #9673a6; stroke-width: 3; fill: none; }
      .iconStrokeDark { stroke: #35536b; stroke-width: 4; fill: none; stroke-linecap: round; stroke-linejoin: round; }
      .iconStrokeGold { stroke: #a67c00; stroke-width: 4; fill: none; stroke-linecap: round; stroke-linejoin: round; }
      .iconStrokeGreen { stroke: #477a2c; stroke-width: 4; fill: none; stroke-linecap: round; stroke-linejoin: round; }
      .iconStrokePurple { stroke: #6d4f80; stroke-width: 4; fill: none; stroke-linecap: round; stroke-linejoin: round; }
      .iconStrokeRed { stroke: #8d3e38; stroke-width: 4; fill: none; stroke-linecap: round; stroke-linejoin: round; }
      .iconFillGreen { fill: #82b366; stroke: none; }
      .iconFillRed { fill: #d26a5c; stroke: none; }
    </style>
  </defs>

  <rect x="430" y="20" rx="18" ry="18" width="640" height="70" fill="#0b3556"/>
  <text x="750" y="64" text-anchor="middle" class="title">Volvo Internal Deployment on Azure Cloud</text>

  <g>
    <circle cx="480" cy="180" r="78" fill="#eef6ff" stroke="#b8d2eb" stroke-width="3"/>
    <circle cx="570" cy="145" r="92" fill="#eef6ff" stroke="#b8d2eb" stroke-width="3"/>
    <circle cx="700" cy="160" r="112" fill="#eef6ff" stroke="#b8d2eb" stroke-width="3"/>
    <circle cx="850" cy="155" r="94" fill="#eef6ff" stroke="#b8d2eb" stroke-width="3"/>
    <circle cx="980" cy="180" r="78" fill="#eef6ff" stroke="#b8d2eb" stroke-width="3"/>
    <rect x="340" y="180" width="820" height="500" rx="34" ry="34" fill="#eef6ff" stroke="#b8d2eb" stroke-width="3"/>
    <text x="750" y="150" text-anchor="middle" class="cloudTitle">Volvo-Approved Azure Cloud</text>
    <text x="750" y="178" text-anchor="middle" class="cloudSub">Private internal application zone</text>
    <g transform="translate(706 92)">
      <path d="M20 35 C5 35 0 25 0 17 C0 7 8 0 18 0 C24 0 30 3 34 8 C38 4 44 2 50 2 C63 2 74 12 74 26 C84 27 92 35 92 45 C92 57 82 66 68 66 L20 66 C9 66 0 57 0 46 C0 39 8 35 20 35 Z" fill="#dcecff" stroke="#6c8ebf" stroke-width="3"/>
    </g>
  </g>

  <g>
    <circle cx="145" cy="300" r="32" fill="none" class="iconStrokeDark"/>
    <path d="M 90 392 Q 145 312 200 392" class="iconStrokeDark"/>
    <text x="145" y="340" text-anchor="middle" class="h">Users</text>
    <text x="145" y="368" text-anchor="middle" class="p">Employees</text>
  </g>

  <g>
    <rect x="380" y="290" rx="22" ry="22" width="190" height="130" fill="#fff2cc" stroke="#d6b656" stroke-width="2"/>
    <g transform="translate(435 312)">
      <rect x="12" y="16" rx="6" ry="6" width="28" height="24" fill="none" class="iconStrokeGold"/>
      <path d="M18 16 Q18 2 31 2 Q44 2 44 16" class="iconStrokeGold"/>
      <circle cx="64" cy="14" r="8" fill="none" class="iconStrokeGold"/>
      <path d="M64 22 L64 38" class="iconStrokeGold"/>
      <path d="M56 30 L72 30" class="iconStrokeGold"/>
    </g>
    <text x="475" y="375" text-anchor="middle" class="h">SSO</text>
    <text x="475" y="403" text-anchor="middle" class="p">Entra ID</text>
  </g>

  <g>
    <rect x="650" y="290" rx="22" ry="22" width="210" height="130" fill="#d5e8d4" stroke="#82b366" stroke-width="2"/>
    <g transform="translate(727 312)">
      <rect x="0" y="0" width="56" height="36" rx="4" ry="4" fill="none" class="iconStrokeGreen"/>
      <rect x="18" y="40" width="20" height="6" class="iconFillGreen"/>
      <rect x="8" y="48" width="40" height="4" class="iconFillGreen"/>
    </g>
    <text x="755" y="375" text-anchor="middle" class="h">Frontend</text>
    <text x="755" y="403" text-anchor="middle" class="p">React App</text>
    <text x="755" y="427" text-anchor="middle" class="small">Azure App Service</text>
  </g>

  <g>
    <rect x="930" y="290" rx="22" ry="22" width="250" height="130" fill="#d5e8d4" stroke="#82b366" stroke-width="2"/>
    <g transform="translate(1035 310)">
      <rect x="0" y="0" width="58" height="14" rx="4" ry="4" fill="none" class="iconStrokeGreen"/>
      <rect x="0" y="22" width="58" height="14" rx="4" ry="4" fill="none" class="iconStrokeGreen"/>
      <rect x="0" y="44" width="58" height="14" rx="4" ry="4" fill="none" class="iconStrokeGreen"/>
      <circle cx="-14" cy="7" r="4" class="iconFillGreen"/>
      <circle cx="-14" cy="29" r="4" class="iconFillGreen"/>
      <circle cx="-14" cy="51" r="4" class="iconFillGreen"/>
    </g>
    <text x="1055" y="390" text-anchor="middle" class="h">Backend API</text>
    <text x="1055" y="418" text-anchor="middle" class="p">FastAPI</text>
    <text x="1055" y="442" text-anchor="middle" class="small">App Service / Container Apps</text>
  </g>

  <g>
    <rect x="1230" y="170" rx="22" ry="22" width="220" height="120" fill="#f8cecc" stroke="#b85450" stroke-width="2"/>
    <g transform="translate(1300 186)">
      <ellipse cx="40" cy="10" rx="28" ry="8" fill="none" class="iconStrokeRed"/>
      <path d="M12 10 L12 40 Q40 56 68 40 L68 10" class="iconStrokeRed"/>
      <ellipse cx="40" cy="40" rx="28" ry="8" fill="none" class="iconStrokeRed"/>
    </g>
    <text x="1340" y="258" text-anchor="middle" class="h">Database</text>
    <text x="1340" y="284" text-anchor="middle" class="p">Azure PostgreSQL</text>
  </g>

  <g>
    <rect x="1230" y="335" rx="22" ry="22" width="220" height="120" fill="#f8cecc" stroke="#b85450" stroke-width="2"/>
    <g transform="translate(1294 352)">
      <path d="M0 16 L24 0 L92 0 L68 16 Z" fill="none" class="iconStrokeRed"/>
      <path d="M0 16 L68 16 L68 44 L0 44 Z" fill="none" class="iconStrokeRed"/>
      <path d="M68 16 L92 0 L92 28 L68 44 Z" fill="none" class="iconStrokeRed"/>
    </g>
    <text x="1340" y="425" text-anchor="middle" class="h">File Storage</text>
    <text x="1340" y="451" text-anchor="middle" class="p">Blob / ADLS</text>
  </g>

  <g>
    <rect x="1230" y="500" rx="22" ry="22" width="220" height="120" fill="#e1d5e7" stroke="#9673a6" stroke-width="2"/>
    <g transform="translate(1300 518)">
      <rect x="0" y="34" width="14" height="20" fill="#9673a6"/>
      <rect x="24" y="20" width="14" height="34" fill="#9673a6"/>
      <rect x="48" y="8" width="14" height="46" fill="#9673a6"/>
      <path d="M0 56 L70 56" class="iconStrokePurple"/>
      <rect x="88" y="10" rx="5" ry="5" width="24" height="18" fill="none" class="iconStrokePurple"/>
      <path d="M92 10 Q92 0 100 0 Q108 0 108 10" class="iconStrokePurple"/>
    </g>
    <text x="1340" y="585" text-anchor="middle" class="h">Ops + Secrets</text>
    <text x="1340" y="611" text-anchor="middle" class="p">Monitor + Key Vault</text>
  </g>

  <path d="M240 340 L380 340" class="lineBlue"/>
  <polygon points="370,334 380,340 370,346" fill="#6c8ebf"/>

  <path d="M570 340 L650 340" class="lineGreen"/>
  <polygon points="640,334 650,340 640,346" fill="#82b366"/>

  <path d="M860 340 L930 340" class="lineGreen"/>
  <polygon points="920,334 930,340 920,346" fill="#82b366"/>

  <path d="M1180 330 L1210 330 L1210 230 L1230 230" class="lineRed"/>
  <polygon points="1220,224 1230,230 1220,236" fill="#d26a5c"/>

  <path d="M1180 355 L1210 355 L1210 395 L1230 395" class="lineRed"/>
  <polygon points="1220,389 1230,395 1220,401" fill="#d26a5c"/>

  <path d="M1180 380 L1210 380 L1210 560 L1230 560" class="linePurple"/>
  <polygon points="1220,554 1230,560 1220,566" fill="#9673a6"/>

  <g>
    <rect x="540" y="520" rx="20" ry="20" width="450" height="130" fill="#fff7d6" stroke="#d6b656" stroke-width="2"/>
    <text x="765" y="555" text-anchor="middle" class="h">Cloud deployment changes</text>
    <text x="580" y="592" class="small">1. SQLite -&gt; PostgreSQL</text>
    <text x="580" y="620" class="small">2. Local uploads folder -&gt; Blob / ADLS</text>
    <text x="580" y="648" class="small">3. localhost API -&gt; internal cloud URL</text>
  </g>
</svg>
