<svg xmlns="http://www.w3.org/2000/svg" width="1500" height="860" viewBox="0 0 1500 860">
  <defs>
    <style>
      .title { font: 700 30px 'Segoe UI', Arial, sans-serif; fill: #ffffff; }
      .cloudTitle { font: 700 28px 'Segoe UI', Arial, sans-serif; fill: #2b5c88; }
      .h { font: 700 21px 'Segoe UI', Arial, sans-serif; fill: #1f2937; }
      .p { font: 16px 'Segoe UI', Arial, sans-serif; fill: #374151; }
      .small { font: 15px 'Segoe UI', Arial, sans-serif; fill: #374151; }
      .lineOrange { stroke: #d79b00; stroke-width: 3; fill: none; }
      .lineBlue { stroke: #6c8ebf; stroke-width: 3; fill: none; }
      .lineGreen { stroke: #82b366; stroke-width: 3; fill: none; }
      .linePurple { stroke: #9673a6; stroke-width: 3; fill: none; }
      .lineRed { stroke: #d26a5c; stroke-width: 3; fill: none; }
      .iconStrokeDark { stroke: #35536b; stroke-width: 4; fill: none; stroke-linecap: round; stroke-linejoin: round; }
      .iconStrokeGold { stroke: #a67c00; stroke-width: 4; fill: none; stroke-linecap: round; stroke-linejoin: round; }
      .iconStrokeGreen { stroke: #477a2c; stroke-width: 4; fill: none; stroke-linecap: round; stroke-linejoin: round; }
      .iconStrokePurple { stroke: #6d4f80; stroke-width: 4; fill: none; stroke-linecap: round; stroke-linejoin: round; }
      .iconStrokeRed { stroke: #8d3e38; stroke-width: 4; fill: none; stroke-linecap: round; stroke-linejoin: round; }
      .iconFillBlue { fill: #9bb9e7; stroke: none; }
      .iconFillGold { fill: #f2b632; stroke: none; }
      .iconFillGreen { fill: #82b366; stroke: none; }
      .iconFillPurple { fill: #9673a6; stroke: none; }
      .iconFillRed { fill: #d26a5c; stroke: none; }
    </style>
  </defs>

  <rect x="360" y="20" rx="18" ry="18" width="780" height="70" fill="#0b3556"/>
  <text x="750" y="64" text-anchor="middle" class="title">Volvo Internal App: Role-Based Access on Azure Cloud</text>

  <g>
    <circle cx="500" cy="170" r="82" fill="#eef6ff" stroke="#b8d2eb" stroke-width="3"/>
    <circle cx="610" cy="140" r="96" fill="#eef6ff" stroke="#b8d2eb" stroke-width="3"/>
    <circle cx="760" cy="150" r="118" fill="#eef6ff" stroke="#b8d2eb" stroke-width="3"/>
    <circle cx="920" cy="145" r="96" fill="#eef6ff" stroke="#b8d2eb" stroke-width="3"/>
    <circle cx="1035" cy="175" r="82" fill="#eef6ff" stroke="#b8d2eb" stroke-width="3"/>
    <rect x="300" y="175" width="1080" height="560" rx="34" ry="34" fill="#eef6ff" stroke="#b8d2eb" stroke-width="3"/>
    <text x="840" y="145" text-anchor="middle" class="cloudTitle">Volvo-Approved Azure Cloud</text>
    <g transform="translate(810 85)">
      <path d="M20 35 C5 35 0 25 0 17 C0 7 8 0 18 0 C24 0 30 3 34 8 C38 4 44 2 50 2 C63 2 74 12 74 26 C84 27 92 35 92 45 C92 57 82 66 68 66 L20 66 C9 66 0 57 0 46 C0 39 8 35 20 35 Z" fill="#dcecff" stroke="#6c8ebf" stroke-width="3"/>
    </g>
  </g>

  <g>
    <rect x="30" y="220" rx="20" ry="20" width="210" height="140" fill="#ffe6cc" stroke="#d79b00" stroke-width="2"/>
    <g transform="translate(92 238)">
      <circle cx="42" cy="18" r="14" fill="none" class="iconStrokeGold"/>
      <path d="M18 58 Q42 28 66 58" class="iconStrokeGold"/>
      <path d="M70 12 L86 12" class="iconStrokeGold"/>
      <path d="M78 4 L78 20" class="iconStrokeGold"/>
      <path d="M72 48 L84 36 L92 44 L106 28" class="iconStrokeGold"/>
    </g>
    <text x="135" y="296" text-anchor="middle" class="h">Admin Users</text>
    <text x="135" y="324" text-anchor="middle" class="p">Upload files</text>
    <text x="135" y="348" text-anchor="middle" class="p">Run calculations</text>
  </g>

  <g>
    <rect x="30" y="430" rx="20" ry="20" width="210" height="140" fill="#dae8fc" stroke="#6c8ebf" stroke-width="2"/>
    <g transform="translate(88 448)">
      <circle cx="46" cy="18" r="14" fill="none" class="iconStrokeDark"/>
      <path d="M22 58 Q46 28 70 58" class="iconStrokeDark"/>
      <circle cx="96" cy="34" r="14" fill="none" class="iconStrokeDark"/>
      <circle cx="96" cy="34" r="5" class="iconFillBlue"/>
    </g>
    <text x="135" y="506" text-anchor="middle" class="h">Viewer Users</text>
    <text x="135" y="534" text-anchor="middle" class="p">Read-only</text>
    <text x="135" y="558" text-anchor="middle" class="p">View reports only</text>
  </g>

  <g>
    <rect x="390" y="330" rx="22" ry="22" width="240" height="130" fill="#fff2cc" stroke="#d6b656" stroke-width="2"/>
    <g transform="translate(474 346)">
      <rect x="12" y="16" rx="6" ry="6" width="28" height="24" fill="none" class="iconStrokeGold"/>
      <path d="M18 16 Q18 2 31 2 Q44 2 44 16" class="iconStrokeGold"/>
      <circle cx="64" cy="14" r="8" fill="none" class="iconStrokeGold"/>
      <path d="M64 22 L64 38" class="iconStrokeGold"/>
      <path d="M56 30 L72 30" class="iconStrokeGold"/>
    </g>
    <text x="510" y="398" text-anchor="middle" class="h">SSO + Group Mapping</text>
    <text x="510" y="426" text-anchor="middle" class="p">Entra ID</text>
    <text x="510" y="450" text-anchor="middle" class="small">Admin group / Viewer group</text>
  </g>

  <g>
    <rect x="700" y="330" rx="22" ry="22" width="230" height="130" fill="#d5e8d4" stroke="#82b366" stroke-width="2"/>
    <g transform="translate(778 346)">
      <rect x="0" y="0" width="56" height="36" rx="4" ry="4" fill="none" class="iconStrokeGreen"/>
      <rect x="18" y="40" width="20" height="6" class="iconFillGreen"/>
      <rect x="8" y="48" width="40" height="4" class="iconFillGreen"/>
    </g>
    <text x="815" y="398" text-anchor="middle" class="h">One Frontend App</text>
    <text x="815" y="426" text-anchor="middle" class="p">React UI</text>
    <text x="815" y="450" text-anchor="middle" class="small">Buttons shown by role</text>
  </g>

  <g>
    <rect x="1000" y="330" rx="22" ry="22" width="230" height="130" fill="#d5e8d4" stroke="#82b366" stroke-width="2"/>
    <g transform="translate(1078 344)">
      <rect x="0" y="0" width="58" height="14" rx="4" ry="4" fill="none" class="iconStrokeGreen"/>
      <rect x="0" y="22" width="58" height="14" rx="4" ry="4" fill="none" class="iconStrokeGreen"/>
      <rect x="0" y="44" width="58" height="14" rx="4" ry="4" fill="none" class="iconStrokeGreen"/>
      <circle cx="-14" cy="7" r="4" class="iconFillGreen"/>
      <circle cx="-14" cy="29" r="4" class="iconFillGreen"/>
      <circle cx="-14" cy="51" r="4" class="iconFillGreen"/>
    </g>
    <text x="1115" y="398" text-anchor="middle" class="h">Backend API</text>
    <text x="1115" y="426" text-anchor="middle" class="p">FastAPI</text>
    <text x="1115" y="450" text-anchor="middle" class="small">Role checks enforced</text>
  </g>

  <g>
    <rect x="1000" y="515" rx="22" ry="22" width="230" height="120" fill="#e1d5e7" stroke="#9673a6" stroke-width="2"/>
    <g transform="translate(1078 532)">
      <path d="M18 8 L28 0 L40 8 L40 22 L28 30 L18 22 Z" fill="none" class="iconStrokePurple"/>
      <path d="M42 28 L52 20 L64 28 L64 42 L52 50 L42 42 Z" fill="none" class="iconStrokePurple"/>
      <path d="M40 16 L46 20" class="iconStrokePurple"/>
    </g>
    <text x="1115" y="582" text-anchor="middle" class="h">RBAC Rules</text>
    <text x="1115" y="608" text-anchor="middle" class="small">Admin = write / run</text>
    <text x="1115" y="630" text-anchor="middle" class="small">Viewer = read only</text>
  </g>

  <g>
    <rect x="1290" y="230" rx="20" ry="20" width="170" height="100" fill="#f8cecc" stroke="#b85450" stroke-width="2"/>
    <g transform="translate(1335 244)">
      <ellipse cx="40" cy="10" rx="28" ry="8" fill="none" class="iconStrokeRed"/>
      <path d="M12 10 L12 40 Q40 56 68 40 L68 10" class="iconStrokeRed"/>
      <ellipse cx="40" cy="40" rx="28" ry="8" fill="none" class="iconStrokeRed"/>
    </g>
    <text x="1375" y="294" text-anchor="middle" class="h">Database</text>
    <text x="1375" y="320" text-anchor="middle" class="p">PostgreSQL</text>
  </g>

  <g>
    <rect x="1290" y="380" rx="20" ry="20" width="170" height="100" fill="#f8cecc" stroke="#b85450" stroke-width="2"/>
    <g transform="translate(1328 395)">
      <path d="M0 16 L24 0 L92 0 L68 16 Z" fill="none" class="iconStrokeRed"/>
      <path d="M0 16 L68 16 L68 44 L0 44 Z" fill="none" class="iconStrokeRed"/>
      <path d="M68 16 L92 0 L92 28 L68 44 Z" fill="none" class="iconStrokeRed"/>
    </g>
    <text x="1375" y="444" text-anchor="middle" class="h">Storage</text>
    <text x="1375" y="470" text-anchor="middle" class="p">Blob / ADLS</text>
  </g>

  <g>
    <rect x="1290" y="530" rx="20" ry="20" width="170" height="100" fill="#f8cecc" stroke="#b85450" stroke-width="2"/>
    <g transform="translate(1322 546)">
      <rect x="0" y="34" width="14" height="20" class="iconFillRed"/>
      <rect x="24" y="20" width="14" height="34" class="iconFillRed"/>
      <rect x="48" y="8" width="14" height="46" class="iconFillRed"/>
      <path d="M0 56 L70 56" class="iconStrokeRed"/>
    </g>
    <text x="1375" y="594" text-anchor="middle" class="h">Reports</text>
    <text x="1375" y="620" text-anchor="middle" class="p">View / export</text>
  </g>

  <path d="M 240 290 L 390 380" class="lineOrange"/>
  <polygon points="379,377 390,380 383,389" fill="#d79b00"/>

  <path d="M 240 500 L 390 410" class="lineBlue"/>
  <polygon points="382,401 390,410 379,411" fill="#6c8ebf"/>

  <path d="M 630 395 L 700 395" class="lineGreen"/>
  <polygon points="690,389 700,395 690,401" fill="#82b366"/>

  <path d="M 930 395 L 1000 395" class="lineGreen"/>
  <polygon points="990,389 1000,395 990,401" fill="#82b366"/>

  <path d="M 1115 460 L 1115 515" class="linePurple"/>
  <polygon points="1109,505 1115,515 1121,505" fill="#9673a6"/>

  <path d="M 1230 370 L 1260 370 L 1260 280 L 1290 280" class="lineRed"/>
  <polygon points="1280,274 1290,280 1280,286" fill="#d26a5c"/>

  <path d="M 1230 395 L 1260 395 L 1260 430 L 1290 430" class="lineRed"/>
  <polygon points="1280,424 1290,430 1280,436" fill="#d26a5c"/>

  <path d="M 1230 420 L 1260 420 L 1260 580 L 1290 580" class="lineRed"/>
  <polygon points="1280,574 1290,580 1280,586" fill="#d26a5c"/>

  <g>
    <rect x="520" y="655" rx="18" ry="18" width="500" height="70" fill="#fff7d6" stroke="#d6b656" stroke-width="2"/>
    <text x="770" y="690" text-anchor="middle" class="h">One app, two roles</text>
    <text x="770" y="715" text-anchor="middle" class="p">This is usually role-based access, not two separate frontends.</text>
  </g>
</svg>
